<svg width="341" height="72" viewBox="0 0 341 72" fill="none" xmlns="http://www.w3.org/2000/svg">
<path d="M218.191 0.791532C219.022 0.827834 219.852 0.886285 220.684 0.92261L224.618 1.16069C227.022 1.33191 229.424 1.52527 231.781 1.78284C234.443 2.05379 237.146 2.39275 239.709 2.92465C241.968 3.37706 244.225 3.89526 246.438 4.41221C245.308 4.18566 244.222 3.96171 243.093 3.73551C241.919 3.50739 240.789 3.28118 239.615 3.07521C238.44 2.86924 237.265 2.66326 236.044 2.52149C234.998 2.38738 233.951 2.2754 232.904 2.16342L232.991 2.16725C229.805 1.85123 226.571 1.62155 223.334 1.45799C221.804 1.3693 220.273 1.30241 218.741 1.23553L217.21 1.16864C214.802 1.10751 212.438 1.02646 210.03 0.96533C207.84 0.914081 205.608 0.838765 203.418 0.787179C202.5 0.747064 201.535 0.748972 200.615 0.753156C195.881 0.745099 191.148 0.715251 186.415 0.685381C185.67 0.675064 184.924 0.686538 184.179 0.698349L177.336 0.797251C173.476 0.849564 169.66 0.903816 165.8 0.956128C162.244 1.08829 158.686 1.24224 155.129 1.3962C152.758 1.49136 150.342 1.60707 147.971 1.70223L145.73 1.80343L145.071 1.84087C138.077 2.39717 131.04 2.92942 124.046 3.48605C123.87 3.50021 123.65 3.5128 123.43 3.54755C132.057 2.83811 140.735 2.35459 149.443 2.09808C152.252 2.02171 155.104 1.96973 157.912 1.91551C159.096 1.901 160.281 1.86434 161.465 1.87164C163.13 1.87813 164.794 1.90679 166.46 1.91328L181.577 2.04298L183.549 2.06288C183.725 2.04835 183.857 2.05411 184.031 2.06173C185.564 2.10681 187.095 2.17369 188.626 2.24058C193.746 2.442 198.821 2.66366 203.897 2.86318L206.698 2.98549C208.14 3.09285 209.539 3.17583 210.937 3.28127C216.006 3.63516 221.033 3.96532 226.102 4.31922C226.803 4.34981 227.545 4.40443 228.244 4.45715L231.258 4.72124C236.585 5.19701 241.91 5.71674 247.23 6.34688C257.827 7.62741 268.321 9.23501 278.399 11.3325C283.347 12.3353 288.254 13.434 293.115 14.6272C297.93 15.8098 302.697 17.0564 307.283 18.4503C309.625 19.1525 311.946 19.8874 314.244 20.6547C316.318 21.3418 318.39 22.0732 320.372 22.8672C322.453 23.679 324.478 24.5565 326.438 25.4965C328.242 26.3487 330 27.2432 331.536 28.2164C333.199 29.2611 334.773 30.3685 336.081 31.5308C336.67 32.0868 337.26 32.6428 337.761 33.2171C338.263 33.7696 338.72 34.3417 339.046 34.9087C339.411 35.5877 339.731 36.2866 339.92 36.9798C340.07 37.5613 340.175 38.1624 340.193 38.7596C340.228 39.9766 339.957 41.1581 339.293 42.3002C338.906 42.983 338.437 43.6423 337.892 44.2722C337.43 44.8045 336.925 45.3349 336.334 45.8175C335.152 46.7823 333.753 47.6936 332.269 48.5568C330.605 49.5227 328.813 50.3947 326.849 51.215C325.01 51.9812 323.122 52.6949 321.189 53.3544C317.049 54.7869 312.654 56.0535 308.134 57.1597C303.527 58.2846 298.794 59.249 293.977 60.1435C289.071 61.0563 284.038 61.8751 278.964 62.6258C276.538 62.9839 274.066 63.3621 271.599 63.6521C266.972 64.2015 262.389 64.7525 257.762 65.3019C255.735 65.5449 253.753 65.7677 251.726 66.0107C251.153 66.0741 250.58 66.1375 249.964 66.1987C242.044 66.8914 234.078 67.6043 226.158 68.297C225.982 68.3115 225.762 68.3241 225.586 68.3383L223.74 68.4567L217.014 68.8922C212.135 69.1872 207.299 69.5066 202.42 69.8237C201.717 69.8592 201.013 69.9169 200.31 69.9524C198.992 70.0277 197.63 70.0785 196.313 70.1316C191.146 70.3497 185.978 70.5659 180.811 70.7803C178.879 70.8506 176.99 70.9449 175.058 71.0152C174.356 71.0289 173.653 71.0645 172.951 71.0779C168.784 71.139 164.574 71.176 160.407 71.2371C156.021 71.2886 151.591 71.3604 147.205 71.412C146.679 71.4112 146.153 71.4101 145.583 71.4074C143.744 71.3714 141.86 71.3554 140.02 71.319C134.808 71.2242 129.551 71.1493 124.338 71.0541C122.981 71.0388 121.579 70.9998 120.221 70.9849L117.946 70.8855C112.914 70.6876 107.926 70.4697 102.893 70.2721C100.793 70.1804 98.7361 70.1127 96.6358 70.021C94.1847 69.9358 91.6927 69.7829 89.2446 69.6319C83.6917 69.301 78.1414 68.9257 72.5963 68.4186C67.2692 67.9428 61.9002 67.4209 56.5818 66.7468C53.8425 66.4039 51.1113 66.0267 48.3898 65.6153C45.9274 65.2478 43.475 64.8461 41.0342 64.4104C38.4244 63.9427 35.8605 63.4329 33.3443 62.8368C31.1311 62.3202 28.9188 61.7818 26.7972 61.1807C24.4595 60.504 22.1667 59.8074 19.9665 59.0042C17.9809 58.2984 16.0846 57.5529 14.2799 56.7226C12.3025 55.8185 10.4597 54.854 8.84077 53.789C7.39161 52.8418 6.03314 51.8323 4.89607 50.7661C3.67652 49.5858 2.63351 48.3688 1.90021 47.0994C1.20646 45.9199 0.733138 44.7059 0.523709 43.4813C0.111579 40.8779 0.70908 38.23 2.30659 35.7806C3.81103 33.4597 6.09791 31.2833 8.98728 29.3544C11.8772 27.4256 15.2403 25.6939 18.8605 24.1066C22.4802 22.5186 26.402 21.0545 30.4477 19.7507C34.6719 18.3885 39.1088 17.1678 43.5863 16.0154C48.1974 14.8247 52.848 13.7239 57.5397 12.6912C58.9106 12.4195 60.2386 12.1241 61.5657 11.8506C61.7871 11.794 62.008 11.7593 62.2733 11.7046C62.7717 11.6033 63.2728 11.5074 63.7764 11.4169C68.3292 10.5549 72.8809 9.71508 77.4337 8.8531L81.4114 8.09882C81.6333 8.04227 81.8976 8.00943 82.162 7.97693C82.8233 7.8952 83.4418 7.78973 84.1026 7.70797C88.8228 7.03017 93.5873 6.33244 98.3513 5.65655C99.6306 5.46933 100.865 5.30233 102.145 5.1148C102.409 5.0823 102.629 5.06969 102.893 5.03721C103.598 4.95737 104.347 4.87978 105.052 4.79994C109.941 4.26199 114.874 3.72597 119.763 3.18835L123.596 2.75926C123.86 2.72642 124.123 2.71607 124.387 2.70538L126.63 2.53807C131.555 2.17855 136.525 1.79914 141.494 1.44154C142.329 1.38958 143.166 1.3155 144.001 1.26387C144.22 1.25127 144.485 1.21845 144.748 1.2081C146.065 1.17717 147.338 1.12217 148.656 1.06942C153.662 0.867781 158.623 0.687044 163.585 0.483822C164.42 0.454012 165.211 0.400134 166 0.390242C167.754 0.378755 169.465 0.342865 171.219 0.331042C175.868 0.290964 180.473 0.22682 185.121 0.186742C185.955 0.179103 186.743 0.191339 187.576 0.205849C190.073 0.226492 192.527 0.245241 195.025 0.265571C197.304 0.277029 199.626 0.31186 201.905 0.323296C202.256 0.316443 202.65 0.311821 203 0.327095C203.481 0.348123 204.007 0.348897 204.489 0.369924C208.822 0.514804 213.113 0.635976 217.446 0.781193C217.753 0.794572 218.015 0.806033 218.191 0.791532ZM149.532 4.09078C149.664 4.07436 149.839 4.08201 150.015 4.06785C128.726 4.72908 107.774 6.68679 87.8138 10.058C87.8137 10.0569 87.8138 10.0559 87.8139 10.0549C87.8032 10.0575 87.7921 10.057 87.7699 10.056C87.6377 10.0721 87.5046 10.1107 87.3724 10.1271C87.5046 10.1107 87.5929 10.0924 87.725 10.0759C80.2163 11.3834 72.7885 12.8269 65.656 14.5483C58.5679 16.2498 51.7325 18.1835 45.2788 20.4207C41.2278 21.8348 37.3027 23.3869 33.7215 25.0869C31.8417 25.9772 30.0473 26.9152 28.2958 27.8774C26.7686 28.7168 25.197 29.5762 23.7543 30.4856C22.8981 31.0228 22.0409 31.5819 21.271 32.1451C20.863 32.4588 20.4539 32.7943 20.0453 33.108C19.8186 33.2749 19.5924 33.4419 19.4096 33.6104C18.8626 34.0949 18.36 34.5592 17.8139 35.0215C16.9023 35.8213 15.9916 36.5993 15.2102 37.4269C15.5521 36.6244 15.9814 35.8255 16.4546 35.0284C16.6451 34.683 16.879 34.3398 17.0695 33.9944C17.3522 33.5428 17.6348 33.0911 17.9614 32.6414C18.7495 31.659 19.5797 30.7232 20.6274 29.8188C21.6741 28.9361 22.7638 28.0776 24.0261 27.2709C25.3358 26.4001 26.7313 25.5549 28.2556 24.7819C29.6458 24.0693 31.0784 23.3804 32.5979 22.7174C36.3971 21.0492 40.4524 19.5246 44.6781 18.1181C49.0588 16.6725 53.533 15.3492 58.0897 14.1516C61.4477 13.2709 64.8455 12.4539 68.2791 11.7016C67.1295 11.9171 65.9795 12.1536 64.8305 12.3687C64.3881 12.46 63.9468 12.5292 63.5044 12.6202C62.8416 12.7459 62.1774 12.8937 61.5136 13.0416C57.9175 13.8138 54.3452 14.6303 50.7985 15.4905C47.143 16.3826 43.5209 17.3296 39.9348 18.3309C36.5619 19.2663 33.3189 20.2517 30.1598 21.3292C23.7051 23.5886 17.6739 26.1761 12.6737 29.2501C10.1041 30.8837 7.96579 32.6688 6.30409 34.5851C5.70963 35.3169 5.1931 36.0771 4.75817 36.8601C4.37231 37.6606 4.03085 38.4635 3.77522 39.2922C3.56542 40.0786 3.44249 40.8906 3.4517 41.6869C3.41992 42.4145 3.52029 43.1263 3.66312 43.8615C3.85226 44.555 4.08482 45.2501 4.44954 45.929C4.80367 46.6413 5.22721 47.3389 5.71741 48.0173C6.30018 48.728 6.92636 49.4403 7.68618 50.1143C8.48746 50.8346 9.33363 51.5343 10.269 52.1941C11.2912 52.8796 12.3583 53.5449 13.5147 54.17C14.7877 54.8358 16.1062 55.4612 17.4656 56.044C19.8082 57.014 22.2287 57.8945 24.7146 58.6809C27.1938 59.4536 29.7236 60.1467 32.295 60.7578C34.899 61.3577 37.5039 61.9358 40.1566 62.4273C42.7654 62.9168 45.4644 63.344 48.121 63.7475C51.0385 64.1843 53.9574 64.5989 56.9232 64.9494C59.6699 65.2906 62.4186 65.5871 65.2117 65.8641C70.5373 66.3839 75.9092 66.8394 81.2845 67.207C83.9516 67.3675 86.6178 67.5502 89.2854 67.6889C90.5971 67.7684 91.9535 67.8277 93.2652 67.9068C93.9642 67.9595 94.6207 67.9882 95.3207 68.0188L106.524 68.4419L119.521 68.9433C120.134 68.97 120.704 68.9727 121.273 68.9754C123.113 69.0117 124.997 69.0278 126.837 69.0638L142.476 69.2828C143.747 69.2943 145.06 69.3295 146.375 69.3425C146.55 69.3501 146.726 69.336 146.901 69.3436C147.472 69.3242 148.042 69.3268 148.612 69.3077C156.771 69.1779 164.93 69.0702 173.089 68.9404C179.634 68.6297 186.22 68.3647 192.764 68.0762C194.609 68.0021 196.498 67.9077 198.342 67.8336C198.869 67.8122 199.44 67.7931 199.968 67.7499C204.319 67.4757 208.629 67.178 212.98 66.9037C216.936 66.6569 220.849 66.3857 224.805 66.1385C225.464 66.101 226.169 66.0215 226.83 65.9619C228.942 65.7667 231.098 65.5959 233.21 65.4007C238.007 64.9693 242.759 64.5582 247.556 64.1269C248.261 64.047 248.964 64.0115 249.625 63.9301L254.12 63.3971L268.793 61.6514C269.983 61.5043 271.172 61.3794 272.363 61.2105C277.346 60.522 282.288 59.7876 287.19 58.9631C290.105 58.4717 292.977 57.9341 295.851 57.3747C298.504 56.8497 301.158 56.3026 303.771 55.6874C308.997 54.4792 314.055 53.0872 318.773 51.4591C320.955 50.6705 323.094 49.8799 325.106 48.9732C326.134 48.5101 327.119 48.0447 328.062 47.5334C328.769 47.1502 329.459 46.7529 330.13 46.342C331.016 45.8133 331.833 45.2355 332.573 44.6146C333.21 44.0899 333.715 43.5374 334.222 42.9849C334.676 42.4609 335.052 41.9076 335.346 41.3323C335.584 40.9009 335.735 40.4656 335.886 40.0301C335.994 39.5486 336.058 39.0874 336.034 38.6224C336.012 38.1352 335.989 37.6702 335.877 37.201C335.767 36.7541 335.61 36.3117 335.409 35.8769C335.166 35.3973 334.879 34.9272 334.55 34.4692C333.968 33.7586 333.34 33.0681 332.58 32.4162C331.821 31.7203 330.93 31.0406 330.038 30.3829C327.144 28.4002 323.581 26.6753 319.837 25.0754C317.599 24.1381 315.269 23.2848 312.893 22.474C310.43 21.6593 307.924 20.8427 305.414 20.0922C300.351 18.5672 295.152 17.1911 289.903 15.9232C281.66 13.95 273.231 12.2339 264.613 10.8188C260.217 10.0963 255.774 9.46037 251.328 8.86843C246.838 8.29674 242.346 7.79118 237.851 7.32957L237.86 7.32997C236.09 7.16859 234.289 6.99008 232.524 6.83163C231.695 6.75137 230.821 6.691 229.948 6.60882C229.511 6.56756 229.076 6.50415 228.638 6.48504C227.938 6.45447 227.239 6.40208 226.54 6.34936C223.175 6.11395 219.853 5.90261 216.488 5.6672C213.472 5.46924 210.5 5.25102 207.528 5.05498C206.349 4.95908 205.166 4.92963 203.942 4.87614C198.821 4.6747 193.746 4.45303 188.67 4.25318C187.137 4.20843 185.606 4.14156 184.075 4.07466C183.856 4.06512 183.68 4.07962 183.505 4.07197C182.892 4.06739 182.234 4.06052 181.621 4.05592L166.503 3.92588C164.838 3.91972 163.173 3.89139 161.508 3.88457L161.202 3.87119C159.886 3.87997 158.615 3.89101 157.298 3.9216C154.71 3.96322 152.077 4.0251 149.532 4.09078ZM238.033 7.3456C238.126 7.35639 238.228 7.36825 238.331 7.37273L238.033 7.34558L238.033 7.3456ZM87.8576 10.038C87.8576 10.038 87.8183 10.0363 87.8134 10.0552C87.8294 10.051 87.8443 10.0452 87.8576 10.038ZM237.859 7.33026L238.032 7.34589C237.975 7.33905 237.917 7.33384 237.859 7.33028L237.859 7.33026ZM289.598 15.8662C289.566 15.8591 289.533 15.8523 289.511 15.8403L289.598 15.8662ZM289.685 15.8919L289.598 15.8662C289.629 15.8712 289.658 15.8799 289.685 15.8919ZM23.5965 30.589C23.6169 30.5738 23.6395 30.56 23.6641 30.5479L23.5965 30.589ZM23.529 30.6304L23.5965 30.589C23.5736 30.6048 23.5512 30.6203 23.529 30.6304ZM6.21531 34.6034C6.19313 34.6135 6.18129 34.6298 6.16947 34.6458L6.21531 34.6034ZM6.16947 34.6458L6.12415 34.6878C6.1445 34.6769 6.1601 34.6625 6.16946 34.6461L6.16947 34.6458ZM17.165 55.8984C17.208 55.9224 17.2514 55.9243 17.2504 55.9465L17.165 55.8984ZM87.6807 10.0962C87.725 10.0759 87.725 10.0759 87.7689 10.0778L87.6807 10.0962Z" fill="#F37060"/>
</svg>
