<svg width="38" height="48" viewBox="0 0 38 48" fill="none" xmlns="http://www.w3.org/2000/svg">
<path fill-rule="evenodd" clip-rule="evenodd" d="M37.3757 24.4541C36.3193 17.1078 31.7353 8.38034 25.3694 3.58872C22.7613 1.62582 19.5765 0.350296 16.6448 0.058957C9.40248 -0.663929 2.94881 5.37317 1.01508 11.9966C-1.63511 20.8133 0.812207 32.5815 9.44086 41.4893C9.44177 41.4902 9.4436 41.492 9.44451 41.4929C9.44634 41.4965 9.44817 41.4993 9.45091 41.502C9.45822 41.5084 9.46462 41.5138 9.47193 41.5202C10.0065 42.0646 11.0492 42.9223 11.8699 43.494C15.4065 46.2244 18.8938 47.9515 24.0397 47.9998C29.055 48.0462 30.4167 45.6554 28.3321 41.2134C25.8044 35.8291 21.4024 37.5361 16.9509 32.2292C15.5674 30.5786 14.4442 28.6903 13.5624 26.6992C9.91881 18.4753 11.1233 10.0273 16.2528 7.83226C21.3832 5.63629 27.6778 10.1921 31.3223 18.4161C32.2444 20.4973 32.9179 22.3364 33.3127 24.323C33.7422 26.4807 34.6277 26.7457 35.8395 27.4704C37.2624 28.3207 37.7239 26.874 37.3757 24.4541Z" fill="#10B899"/>
<path fill-rule="evenodd" clip-rule="evenodd" d="M18.2922 17.8347C20.3813 16.9416 23.2773 18.9309 24.7614 22.2794C26.2446 25.628 25.7538 29.0667 23.6657 29.9617C21.5766 30.8539 18.6806 28.8646 17.1974 25.516C15.7142 22.1675 16.2031 18.7287 18.2922 17.8347Z" fill="#F37060"/>
<path fill-rule="evenodd" clip-rule="evenodd" d="M31.8269 42.0352C32.7719 44.0136 33.7735 43.3808 33.7268 41.3851C33.6976 40.1378 33.6528 39.902 33.5934 38.5737C33.5395 37.3719 33.6035 36.1356 34.8015 35.8633C35.1214 35.7914 35.4275 35.7441 36.0508 35.602C36.6128 35.4746 36.9226 35.3571 37.0158 35.1596C37.2233 34.718 36.7919 34.1963 35.9256 33.7648C34.2989 32.9536 32.5142 32.0978 30.4717 31.2356C28.3835 30.3516 27.614 29.92 27.2129 30.2787C26.8428 30.6092 27.2412 31.4259 28.3333 34.0379C29.588 37.0415 31.2914 40.8707 31.8269 42.0352Z" fill="#253942"/>
<path fill-rule="evenodd" clip-rule="evenodd" d="M24.673 3.11272C25.8144 3.86474 27.3004 4.99732 28.5149 6.20001C33.2496 10.8924 36.4252 17.8618 37.3729 24.4533C37.4753 25.1635 37.6599 26.5446 37.648 27.3467C37.6178 29.2814 36.9288 30.7736 35.7728 30.586C34.4504 30.3703 33.7705 29.2359 33.7175 27.8156C33.6745 26.6511 33.4963 25.2636 33.3099 24.3222C32.9151 22.3357 32.2416 20.4966 31.3195 18.4153C27.676 10.1914 21.3795 5.63736 16.25 7.83151C13.6035 8.96227 12.2473 11.9731 11.7968 14.7153C10.6809 21.5008 13.5441 29.1867 19.5801 34.6712C6.34925 27.3503 4.93643 9.16348 11.9466 3.2939C15.3745 0.422384 19.263 -0.452544 24.673 3.11272Z" fill="url(#paint0_linear_305_850)"/>
<defs>
<linearGradient id="paint0_linear_305_850" x1="32.1807" y1="32.8677" x2="15.6602" y2="10.3521" gradientUnits="userSpaceOnUse">
<stop stop-color="#009891"/>
<stop offset="1" stop-color="#036B65"/>
</linearGradient>
</defs>
</svg>
