<svg width="198" height="48" viewBox="0 0 198 48" fill="none" xmlns="http://www.w3.org/2000/svg">
<g clip-path="url(#clip0_305_848)">
<path fill-rule="evenodd" clip-rule="evenodd" d="M37.3757 24.4541C36.3193 17.1078 31.7353 8.38034 25.3694 3.58872C22.7613 1.62582 19.5765 0.350296 16.6448 0.058957C9.40248 -0.663929 2.94881 5.37317 1.01508 11.9966C-1.63511 20.8133 0.812207 32.5815 9.44086 41.4893C9.44177 41.4902 9.4436 41.492 9.44451 41.4929C9.44634 41.4965 9.44817 41.4993 9.45091 41.502C9.45822 41.5084 9.46462 41.5138 9.47193 41.5202C10.0065 42.0646 11.0492 42.9223 11.8699 43.494C15.4065 46.2244 18.8938 47.9515 24.0397 47.9998C29.055 48.0462 30.4167 45.6554 28.3321 41.2134C25.8044 35.8291 21.4024 37.5361 16.9509 32.2292C15.5674 30.5786 14.4442 28.6903 13.5624 26.6992C9.91881 18.4753 11.1233 10.0273 16.2528 7.83226C21.3832 5.63629 27.6778 10.1921 31.3223 18.4161C32.2444 20.4973 32.9179 22.3364 33.3127 24.323C33.7422 26.4807 34.6277 26.7457 35.8395 27.4704C37.2624 28.3207 37.7239 26.874 37.3757 24.4541Z" fill="#10B899"/>
<path d="M48 31.4271L48.5593 30.524C48.6214 30.4183 48.7018 30.3346 48.8005 30.2727C48.8956 30.2117 49.0199 30.1816 49.1697 30.1816C49.3269 30.1816 49.4804 30.229 49.6267 30.3237C49.7765 30.4211 49.952 30.5276 50.1567 30.6441C50.3578 30.7652 50.6063 30.8736 50.8914 30.9719C51.1766 31.0702 51.5311 31.1203 51.9552 31.1203C52.3024 31.1203 52.6058 31.0775 52.8654 30.9937C53.1213 30.9091 53.3333 30.7962 53.5014 30.6505C53.6696 30.5048 53.7902 30.341 53.8706 30.1598C53.9474 29.9777 53.9876 29.7765 53.9876 29.5662C53.9876 29.2849 53.9072 29.0554 53.7427 28.8742C53.5818 28.6958 53.3653 28.5392 53.0957 28.4117C52.8288 28.2797 52.5254 28.1605 52.1818 28.0539C51.8419 27.9492 51.4946 27.8391 51.1437 27.7307C50.7928 27.6206 50.4455 27.4895 50.1092 27.3365C49.7692 27.1799 49.4658 26.9833 49.199 26.7402C48.9285 26.4989 48.7165 26.2076 48.5556 25.8616C48.3948 25.5193 48.3144 25.1005 48.3144 24.6016C48.3144 24.1682 48.4058 23.7485 48.5849 23.3525C48.764 22.9555 49.0263 22.6059 49.3781 22.3036C49.7327 22.0014 50.1604 21.7647 50.6721 21.5871C51.1802 21.4123 51.7688 21.324 52.434 21.324C53.198 21.324 53.8926 21.4414 54.5213 21.6782C55.1464 21.9149 55.6728 22.2344 56.0931 22.6359L55.5521 23.5136C55.4936 23.6156 55.4242 23.6884 55.3474 23.7357C55.2707 23.7831 55.1793 23.8086 55.066 23.8086C54.9417 23.8086 54.8028 23.7685 54.6492 23.6839C54.4957 23.6001 54.3202 23.51 54.1229 23.408C53.9255 23.3097 53.6915 23.2177 53.421 23.1376C53.1505 23.0611 52.8361 23.0211 52.4779 23.0211C52.1855 23.0211 51.9223 23.0538 51.6883 23.123C51.4507 23.1922 51.2506 23.2942 51.0888 23.4253C50.9243 23.5573 50.7964 23.7103 50.7087 23.8841C50.6173 24.058 50.5734 24.2483 50.5734 24.4523C50.5734 24.7217 50.6502 24.9439 50.8074 25.1214C50.9646 25.3008 51.1729 25.4574 51.4325 25.5885C51.692 25.7196 51.9881 25.8361 52.328 25.9454C52.6643 26.051 53.0079 26.1602 53.3552 26.2695C53.7025 26.3787 54.0497 26.5108 54.4007 26.6592C54.7479 26.8085 55.0586 26.9942 55.3328 27.2127C55.607 27.4348 55.8299 27.6961 55.9981 28.0093C56.1626 28.3198 56.2467 28.6949 56.2467 29.131C56.2467 29.6627 56.1516 30.1552 55.9579 30.6023C55.7678 31.0502 55.4863 31.4399 55.1171 31.7713C54.7479 32.1017 54.2873 32.3585 53.7317 32.5433C53.1761 32.7254 52.5474 32.8173 51.8345 32.8173C51.4507 32.8173 51.0742 32.7837 50.705 32.7154C50.3395 32.6462 49.9959 32.5469 49.6669 32.424C49.3415 32.3039 49.0381 32.1545 48.7567 31.9843C48.4752 31.8159 48.223 31.6265 48 31.4271ZM58.3887 32.6462V21.507H59.9606C60.3152 21.507 60.5455 21.6554 60.6478 21.954L60.6953 22.9255C60.9 22.6887 61.1047 22.4784 61.3204 22.2854C61.5324 22.0924 61.7627 21.9249 62.0113 21.782C62.2589 21.6408 62.5267 21.5279 62.8082 21.4478C63.0942 21.3641 63.4003 21.3231 63.7293 21.3231C64.0766 21.3231 64.3983 21.375 64.6944 21.476C64.9868 21.5826 65.2463 21.7282 65.4693 21.9167C65.6923 22.1024 65.886 22.3319 66.0505 22.605C66.215 22.8754 66.3539 23.1776 66.4673 23.5118C66.6391 23.1258 66.8511 22.7944 67.1033 22.5176C67.3555 22.2399 67.6406 22.015 67.955 21.8402C68.2694 21.6663 68.6057 21.538 68.9566 21.4506C69.3112 21.3668 69.6731 21.3222 70.045 21.3222C70.6445 21.3222 71.1818 21.4169 71.6534 21.6071C72.125 21.7929 72.5234 22.0696 72.8487 22.4338C73.1741 22.7944 73.419 23.2386 73.5871 23.7631C73.7553 24.2829 73.8393 24.8811 73.8393 25.5475V32.6453H71.4816V25.5475C71.4816 24.7609 71.3134 24.1673 70.9735 23.774C70.6335 23.3761 70.1254 23.1813 69.4565 23.1813C69.1531 23.1813 68.8753 23.2323 68.6121 23.3342C68.3525 23.4389 68.1223 23.5883 67.9212 23.7858C67.7202 23.9779 67.5666 24.2256 67.4533 24.5215C67.3436 24.8155 67.2888 25.1588 67.2888 25.5484V32.6462H64.9311V25.5484C64.9311 24.7327 64.7666 24.1309 64.4376 23.7521C64.1086 23.3698 63.6297 23.1813 62.9937 23.1813C62.5587 23.1813 62.1529 23.2933 61.7801 23.5154C61.4036 23.7412 61.0599 24.0435 60.7456 24.4295V32.6453H58.3887V32.6462ZM75.7776 29.8384C75.7776 29.4123 75.8937 28.9972 76.124 28.5893C76.3589 28.1823 76.7381 27.8136 77.2681 27.4931C77.7945 27.169 78.4927 26.9041 79.3636 26.6883C80.229 26.4771 81.3001 26.3569 82.5731 26.3278V25.5666C82.5731 24.7509 82.4013 24.1427 82.0604 23.7458C81.7177 23.3488 81.2124 23.1485 80.5507 23.1485C80.1011 23.1485 79.7228 23.2068 79.4102 23.3233C79.0995 23.4399 78.8336 23.5682 78.6069 23.7021C78.384 23.8359 78.182 23.9643 78.0075 24.0817C77.8329 24.1973 77.6456 24.2556 77.4454 24.2556C77.2809 24.2556 77.142 24.2119 77.0315 24.1236C76.919 24.0362 76.8231 23.9306 76.7463 23.8068L76.326 23.0201C77.5917 21.8657 79.0959 21.2912 80.8395 21.2912C81.4765 21.2912 82.0458 21.3923 82.5438 21.6008C83.0437 21.8084 83.4614 22.0997 83.7967 22.4821C84.1321 22.8608 84.3889 23.3124 84.5644 23.8286C84.7444 24.3494 84.8321 24.9257 84.8321 25.5584V32.6453H83.783C83.5527 32.6453 83.3819 32.6125 83.264 32.5433C83.1424 32.4778 83.0446 32.3357 82.9679 32.1245L82.7586 31.2223C82.4781 31.4836 82.1966 31.713 81.9179 31.9069C81.641 32.1027 81.3558 32.2674 81.0597 32.4058C80.7673 32.5433 80.4493 32.6498 80.1139 32.7154C79.7767 32.7837 79.4002 32.8173 78.9908 32.8173C78.5375 32.8173 78.1162 32.7554 77.7214 32.6353C77.3266 32.5151 76.9876 32.3284 76.7025 32.0781C76.4137 31.8277 76.1898 31.5136 76.0262 31.1431C75.8617 30.7716 75.7776 30.3337 75.7776 29.8384ZM78.0358 29.6745C78.0358 29.934 78.0806 30.1561 78.1646 30.3346C78.2524 30.5167 78.3703 30.666 78.5201 30.7825C78.67 30.8954 78.8418 30.9828 79.0429 31.0365C79.243 31.0921 79.4623 31.1203 79.7072 31.1203C80.3177 31.1203 80.8477 31.0083 81.29 30.7825C81.7323 30.5531 82.1609 30.2326 82.5731 29.8138V27.7708C81.7323 27.8081 81.0241 27.8728 80.4493 27.9756C79.8763 28.0767 79.4066 28.2087 79.0502 28.3726C78.6883 28.5365 78.4269 28.7304 78.2716 28.9489C78.1125 29.1692 78.0358 29.4096 78.0358 29.6745ZM87.5883 32.6462V21.507H89.0715C89.343 21.507 89.5285 21.5498 89.6317 21.6336C89.7368 21.7182 89.8063 21.8712 89.8456 22.0851L89.894 23.4699C90.1938 22.7925 90.5885 22.2654 91.0866 21.8748C91.5828 21.4842 92.1787 21.2921 92.8805 21.2921C93.1218 21.2921 93.3484 21.3167 93.5604 21.3723C93.7697 21.4232 93.9589 21.507 94.1243 21.619L93.9634 23.3124C93.9333 23.4253 93.8903 23.5054 93.8282 23.5491C93.766 23.5965 93.682 23.6183 93.575 23.6183C93.4699 23.6183 93.3128 23.5964 93.1108 23.5573C92.907 23.5163 92.6913 23.499 92.461 23.499C92.1366 23.499 91.8433 23.5464 91.5828 23.6447C91.3279 23.7421 91.1012 23.8814 90.9029 24.0671C90.7064 24.2492 90.5337 24.475 90.382 24.74C90.2267 25.0067 90.0823 25.309 89.9461 25.6431V32.6462H87.5883ZM94.6589 22.8463V21.9112L96.4674 21.6336L96.9828 18.4152C97.0203 18.2941 97.0806 18.1967 97.1702 18.1165C97.2615 18.0401 97.3739 18 97.5165 18H98.7265V21.6563H101.83V23.3534H98.7265V29.7155C98.7265 30.1152 98.8242 30.4211 99.0225 30.6368C99.2154 30.8517 99.4795 30.9601 99.8075 30.9601C99.9949 30.9601 100.152 30.9355 100.284 30.8836C100.414 30.8335 100.529 30.7752 100.623 30.7161C100.714 30.6578 100.795 30.5995 100.868 30.5449C100.937 30.4894 101.007 30.4611 101.073 30.4611C101.202 30.4611 101.307 30.5376 101.391 30.6906L102.089 31.8514C101.726 32.1609 101.297 32.4013 100.799 32.5688C100.303 32.7336 99.7902 32.8164 99.2601 32.8164C98.3317 32.8164 97.6198 32.557 97.1181 32.0371C96.6164 31.5209 96.3687 30.7843 96.3687 29.8375V23.3515H95.1405C95.0116 23.3515 94.8992 23.3078 94.8014 23.2232C94.7046 23.1412 94.6589 23.0138 94.6589 22.8463ZM103.683 36.3498V21.507H105.256C105.611 21.507 105.842 21.6518 105.943 21.9467L106.002 23.0866C106.232 22.8208 106.473 22.5768 106.732 22.3546C106.989 22.1361 107.266 21.9467 107.562 21.7901C107.858 21.6326 108.176 21.5097 108.513 21.4223C108.852 21.3349 109.211 21.2912 109.595 21.2912C110.224 21.2912 110.795 21.4187 111.305 21.67C111.82 21.9203 112.26 22.2854 112.625 22.7652C112.986 23.2423 113.268 23.8359 113.47 24.5469C113.67 25.2562 113.769 26.0692 113.769 26.9833C113.769 27.8136 113.659 28.582 113.436 29.2912C113.218 30.0014 112.895 30.6177 112.479 31.1385C112.061 31.6584 111.558 32.0671 110.966 32.3621C110.374 32.6562 109.704 32.8064 108.963 32.8064C108.308 32.8064 107.75 32.7035 107.289 32.496C106.827 32.2884 106.411 32.0007 106.042 31.6329V36.3489H103.683V36.3498ZM106.041 29.8466C106.369 30.2681 106.728 30.5631 107.123 30.7343C107.516 30.9054 107.949 30.9937 108.43 30.9937C109.351 30.9937 110.067 30.6578 110.579 29.985C111.095 29.3149 111.35 28.3134 111.35 26.9842C111.35 26.2995 111.292 25.7132 111.176 25.2207C111.054 24.7327 110.89 24.3357 110.671 24.0262C110.455 23.7203 110.185 23.4981 109.871 23.3561C109.551 23.2177 109.198 23.1476 108.802 23.1476C108.197 23.1476 107.68 23.2796 107.253 23.5382C106.824 23.8004 106.419 24.1755 106.043 24.6589V29.8466H106.041ZM115.454 27.0707C115.454 26.1857 115.583 25.3918 115.834 24.6817C116.085 23.9752 116.452 23.3734 116.93 22.8799C117.409 22.3837 117.982 22.0014 118.649 21.7291C119.318 21.4587 120.066 21.324 120.905 21.324C121.726 21.324 122.472 21.4587 123.137 21.7291C123.804 22.0014 124.369 22.3837 124.836 22.8799C125.308 23.3743 125.67 23.9752 125.927 24.6817C126.182 25.3918 126.309 26.1857 126.309 27.0707C126.309 27.9529 126.182 28.7459 125.927 29.4478C125.67 30.1516 125.307 30.7525 124.836 31.2541C124.368 31.7576 123.799 32.14 123.134 32.4058C122.465 32.6717 121.722 32.8064 120.905 32.8064C120.066 32.8064 119.318 32.6717 118.649 32.4058C117.982 32.14 117.41 31.7576 116.93 31.2541C116.452 30.7516 116.085 30.1516 115.834 29.4478C115.583 28.7459 115.454 27.9529 115.454 27.0707ZM117.875 27.0816C117.875 28.3389 118.122 29.3067 118.624 29.9813C119.124 30.6542 119.884 30.9937 120.905 30.9937C121.91 30.9937 122.658 30.6542 123.152 29.9813C123.645 29.3076 123.891 28.3389 123.891 27.0816C123.891 25.8252 123.645 24.8538 123.152 24.1655C122.658 23.4808 121.91 23.1376 120.905 23.1376C119.884 23.1376 119.124 23.4808 118.624 24.1655C118.122 24.8538 117.875 25.8252 117.875 27.0816ZM128.691 32.6462V21.507H131.049V32.6462H128.691ZM134.01 32.6462V21.507H135.581C135.936 21.507 136.166 21.6554 136.268 21.954L136.32 22.9883C136.55 22.7416 136.788 22.5149 137.035 22.3109C137.285 22.1106 137.551 21.9358 137.837 21.7911C138.123 21.6454 138.426 21.5288 138.751 21.4487C139.075 21.365 139.427 21.324 139.803 21.324C140.418 21.324 140.959 21.426 141.422 21.6299C141.89 21.8311 142.28 22.1188 142.598 22.4939C142.918 22.8645 143.158 23.3124 143.319 23.8332C143.48 24.3503 143.56 24.923 143.56 25.5493V32.6471H141.203V25.5493C141.203 24.8028 141.031 24.2237 140.684 23.8049C140.337 23.3898 139.811 23.1822 139.093 23.1822C138.567 23.1822 138.082 23.3024 137.635 23.5455C137.189 23.7867 136.766 24.1136 136.367 24.5251V32.6462H134.01ZM145.287 22.8463V21.9112L147.096 21.6336L147.611 18.4152C147.648 18.2941 147.71 18.1967 147.798 18.1165C147.889 18.0401 148.002 18 148.144 18H149.354V21.6563H152.458V23.3534H149.354V29.7155C149.354 30.1152 149.454 30.4211 149.65 30.6368C149.845 30.8517 150.107 30.9601 150.435 30.9601C150.623 30.9601 150.78 30.9355 150.911 30.8836C151.042 30.8335 151.156 30.7752 151.25 30.7161C151.342 30.6578 151.422 30.5995 151.495 30.5449C151.565 30.4894 151.634 30.4611 151.701 30.4611C151.83 30.4611 151.935 30.5376 152.019 30.6906L152.717 31.8514C152.353 32.1609 151.925 32.4013 151.427 32.5688C150.931 32.7336 150.418 32.8164 149.888 32.8164C148.959 32.8164 148.248 32.557 147.746 32.0371C147.244 31.5209 146.996 30.7843 146.996 29.8375V23.3515H145.768C145.639 23.3515 145.527 23.3078 145.429 23.2232C145.333 23.1412 145.287 23.0138 145.287 22.8463Z" fill="#253942"/>
<path fill-rule="evenodd" clip-rule="evenodd" d="M130.051 15.7656C131.184 15.7656 132.101 16.6815 132.101 17.8086C132.101 18.9376 131.184 19.8517 130.051 19.8517C128.918 19.8517 128 18.9376 128 17.8086C128 16.6815 128.917 15.7656 130.051 15.7656Z" fill="#F37060"/>
<path fill-rule="evenodd" clip-rule="evenodd" d="M18.2922 17.8347C20.3813 16.9416 23.2773 18.9309 24.7614 22.2794C26.2446 25.628 25.7538 29.0667 23.6657 29.9617C21.5766 30.8539 18.6806 28.8646 17.1974 25.516C15.7142 22.1675 16.2031 18.7287 18.2922 17.8347Z" fill="#F37060"/>
<path fill-rule="evenodd" clip-rule="evenodd" d="M31.8269 42.0352C32.7719 44.0136 33.7735 43.3808 33.7268 41.3851C33.6976 40.1378 33.6528 39.902 33.5934 38.5737C33.5395 37.3719 33.6035 36.1356 34.8015 35.8633C35.1214 35.7914 35.4275 35.7441 36.0508 35.602C36.6128 35.4746 36.9226 35.3571 37.0158 35.1596C37.2233 34.718 36.7919 34.1963 35.9256 33.7648C34.2989 32.9536 32.5142 32.0978 30.4717 31.2356C28.3835 30.3516 27.614 29.92 27.2129 30.2787C26.8428 30.6092 27.2412 31.4259 28.3333 34.0379C29.588 37.0415 31.2914 40.8707 31.8269 42.0352Z" fill="#253942"/>
<path fill-rule="evenodd" clip-rule="evenodd" d="M24.673 3.11272C25.8144 3.86474 27.3004 4.99732 28.5149 6.20001C33.2496 10.8924 36.4252 17.8618 37.3729 24.4533C37.4753 25.1635 37.6599 26.5446 37.648 27.3467C37.6178 29.2814 36.9288 30.7736 35.7728 30.586C34.4504 30.3703 33.7705 29.2359 33.7175 27.8156C33.6745 26.6511 33.4963 25.2636 33.3099 24.3222C32.9151 22.3357 32.2416 20.4966 31.3195 18.4153C27.676 10.1914 21.3795 5.63736 16.25 7.83151C13.6035 8.96227 12.2473 11.9731 11.7968 14.7153C10.6809 21.5008 13.5441 29.1867 19.5801 34.6712C6.34925 27.3503 4.93643 9.16348 11.9466 3.2939C15.3745 0.422384 19.263 -0.452544 24.673 3.11272Z" fill="url(#paint0_linear_305_848)"/>
</g>
<path d="M166.525 32.18C167.765 32.18 168.702 31.9133 169.335 31.38C169.975 30.84 170.295 30.0833 170.295 29.11C170.295 28.6633 170.209 28.2633 170.035 27.91C169.869 27.55 169.625 27.2467 169.305 27C168.985 26.7467 168.592 26.5533 168.125 26.42C167.659 26.2867 167.129 26.22 166.535 26.22H162.975V32.18H166.525ZM162.975 19.66V25.47H166.035C166.689 25.47 167.245 25.3867 167.705 25.22C168.172 25.0533 168.552 24.8333 168.845 24.56C169.145 24.2867 169.365 23.9767 169.505 23.63C169.645 23.2833 169.715 22.9267 169.715 22.56C169.715 21.6067 169.412 20.8867 168.805 20.4C168.205 19.9067 167.275 19.66 166.015 19.66H162.975ZM166.015 18.85C166.822 18.85 167.522 18.93 168.115 19.09C168.709 19.25 169.199 19.4867 169.585 19.8C169.972 20.1067 170.259 20.4833 170.445 20.93C170.632 21.3767 170.725 21.8833 170.725 22.45C170.725 22.8233 170.659 23.1833 170.525 23.53C170.399 23.8767 170.212 24.1967 169.965 24.49C169.725 24.7833 169.425 25.04 169.065 25.26C168.712 25.4733 168.305 25.6367 167.845 25.75C168.959 25.91 169.812 26.28 170.405 26.86C171.005 27.4333 171.305 28.19 171.305 29.13C171.305 29.73 171.199 30.27 170.985 30.75C170.772 31.23 170.462 31.6367 170.055 31.97C169.649 32.3033 169.149 32.56 168.555 32.74C167.962 32.9133 167.289 33 166.535 33H161.945V18.85H166.015ZM174.948 18.45V33H173.988V18.45H174.948ZM182.252 22.89C182.965 22.89 183.602 23.0133 184.162 23.26C184.729 23.5 185.205 23.8433 185.592 24.29C185.979 24.7367 186.272 25.2767 186.472 25.91C186.679 26.5367 186.782 27.24 186.782 28.02C186.782 28.8 186.679 29.5033 186.472 30.13C186.272 30.7567 185.979 31.2933 185.592 31.74C185.205 32.1867 184.729 32.53 184.162 32.77C183.602 33.01 182.965 33.13 182.252 33.13C181.539 33.13 180.899 33.01 180.332 32.77C179.772 32.53 179.295 32.1867 178.902 31.74C178.515 31.2933 178.219 30.7567 178.012 30.13C177.812 29.5033 177.712 28.8 177.712 28.02C177.712 27.24 177.812 26.5367 178.012 25.91C178.219 25.2767 178.515 24.7367 178.902 24.29C179.295 23.8433 179.772 23.5 180.332 23.26C180.899 23.0133 181.539 22.89 182.252 22.89ZM182.252 32.38C182.845 32.38 183.362 32.28 183.802 32.08C184.249 31.8733 184.619 31.58 184.912 31.2C185.212 30.82 185.435 30.3633 185.582 29.83C185.729 29.29 185.802 28.6867 185.802 28.02C185.802 27.36 185.729 26.76 185.582 26.22C185.435 25.68 185.212 25.22 184.912 24.84C184.619 24.4533 184.249 24.1567 183.802 23.95C183.362 23.7433 182.845 23.64 182.252 23.64C181.659 23.64 181.139 23.7433 180.692 23.95C180.252 24.1567 179.882 24.4533 179.582 24.84C179.289 25.22 179.065 25.68 178.912 26.22C178.765 26.76 178.692 27.36 178.692 28.02C178.692 28.6867 178.765 29.29 178.912 29.83C179.065 30.3633 179.289 30.82 179.582 31.2C179.882 31.58 180.252 31.8733 180.692 32.08C181.139 32.28 181.659 32.38 182.252 32.38ZM192.675 28.6C193.102 28.6 193.482 28.54 193.815 28.42C194.148 28.2933 194.428 28.12 194.655 27.9C194.882 27.68 195.055 27.4167 195.175 27.11C195.295 26.8033 195.355 26.4633 195.355 26.09C195.355 25.7167 195.292 25.3767 195.165 25.07C195.045 24.7567 194.868 24.49 194.635 24.27C194.408 24.05 194.128 23.88 193.795 23.76C193.468 23.64 193.095 23.58 192.675 23.58C192.255 23.58 191.878 23.64 191.545 23.76C191.218 23.88 190.938 24.05 190.705 24.27C190.478 24.49 190.305 24.7567 190.185 25.07C190.065 25.3767 190.005 25.7167 190.005 26.09C190.005 26.4633 190.065 26.8033 190.185 27.11C190.305 27.4167 190.478 27.68 190.705 27.9C190.938 28.12 191.218 28.2933 191.545 28.42C191.878 28.54 192.255 28.6 192.675 28.6ZM196.395 33.67C196.395 33.3567 196.312 33.1067 196.145 32.92C195.985 32.7267 195.768 32.5767 195.495 32.47C195.222 32.3633 194.905 32.29 194.545 32.25C194.192 32.2033 193.818 32.17 193.425 32.15C193.038 32.13 192.648 32.11 192.255 32.09C191.862 32.07 191.492 32.03 191.145 31.97C190.892 32.07 190.658 32.1867 190.445 32.32C190.232 32.4467 190.048 32.5933 189.895 32.76C189.742 32.9267 189.622 33.1067 189.535 33.3C189.448 33.5 189.405 33.7133 189.405 33.94C189.405 34.2333 189.478 34.5033 189.625 34.75C189.778 35.0033 189.998 35.22 190.285 35.4C190.578 35.5867 190.935 35.7333 191.355 35.84C191.775 35.9467 192.258 36 192.805 36C193.312 36 193.782 35.9433 194.215 35.83C194.655 35.7167 195.035 35.5567 195.355 35.35C195.682 35.1433 195.935 34.8967 196.115 34.61C196.302 34.3233 196.395 34.01 196.395 33.67ZM197.435 23.49V23.82C197.435 23.9667 197.342 24.0567 197.155 24.09L195.635 24.2C195.822 24.4533 195.965 24.7367 196.065 25.05C196.165 25.3633 196.215 25.7033 196.215 26.07C196.215 26.55 196.128 26.9867 195.955 27.38C195.788 27.7667 195.548 28.1 195.235 28.38C194.928 28.6533 194.555 28.8667 194.115 29.02C193.682 29.1733 193.202 29.25 192.675 29.25C192.108 29.25 191.592 29.1633 191.125 28.99C190.845 29.15 190.622 29.34 190.455 29.56C190.295 29.7733 190.215 29.9867 190.215 30.2C190.215 30.4867 190.315 30.7067 190.515 30.86C190.722 31.0133 190.988 31.1267 191.315 31.2C191.648 31.2667 192.025 31.31 192.445 31.33C192.872 31.35 193.305 31.3733 193.745 31.4C194.185 31.42 194.615 31.46 195.035 31.52C195.462 31.58 195.838 31.6867 196.165 31.84C196.498 31.9867 196.765 32.1967 196.965 32.47C197.172 32.7367 197.275 33.0933 197.275 33.54C197.275 33.9533 197.172 34.35 196.965 34.73C196.758 35.11 196.458 35.4467 196.065 35.74C195.678 36.0333 195.208 36.2667 194.655 36.44C194.102 36.62 193.482 36.71 192.795 36.71C192.095 36.71 191.482 36.6367 190.955 36.49C190.428 36.35 189.985 36.1567 189.625 35.91C189.272 35.67 189.005 35.39 188.825 35.07C188.645 34.75 188.555 34.41 188.555 34.05C188.555 33.5233 188.728 33.0733 189.075 32.7C189.422 32.32 189.895 32.0233 190.495 31.81C190.162 31.6967 189.892 31.5333 189.685 31.32C189.485 31.1 189.385 30.8033 189.385 30.43C189.385 30.29 189.412 30.1433 189.465 29.99C189.518 29.8367 189.598 29.6867 189.705 29.54C189.812 29.3867 189.942 29.2433 190.095 29.11C190.248 28.9767 190.422 28.8567 190.615 28.75C190.142 28.4767 189.772 28.1133 189.505 27.66C189.245 27.2067 189.115 26.6767 189.115 26.07C189.115 25.59 189.198 25.1567 189.365 24.77C189.538 24.3767 189.782 24.04 190.095 23.76C190.408 23.48 190.782 23.2633 191.215 23.11C191.655 22.9567 192.142 22.88 192.675 22.88C193.115 22.88 193.518 22.9333 193.885 23.04C194.258 23.1467 194.592 23.2967 194.885 23.49H197.435Z" fill="#253942"/>
<defs>
<linearGradient id="paint0_linear_305_848" x1="32.1807" y1="32.8677" x2="15.6602" y2="10.3521" gradientUnits="userSpaceOnUse">
<stop stop-color="#009891"/>
<stop offset="1" stop-color="#036B65"/>
</linearGradient>
<clipPath id="clip0_305_848">
<rect width="153" height="48" fill="white"/>
</clipPath>
</defs>
</svg>
