<?xml version="1.0" standalone="no"?>
<!DOCTYPE svg PUBLIC "-//W3C//DTD SVG 20010904//EN"
 "http://www.w3.org/TR/2001/REC-SVG-20010904/DTD/svg10.dtd">
<svg version="1.0" xmlns="http://www.w3.org/2000/svg"
 width="768.000000pt" height="768.000000pt" viewBox="0 0 768.000000 768.000000"
 preserveAspectRatio="xMidYMid meet">
<metadata>
Created by potrace 1.14, written by Peter Selinger 2001-2017
</metadata>
<g transform="translate(0.000000,768.000000) scale(0.100000,-0.100000)"
fill="#000000" stroke="none">
<path d="M3119 7676 c-2 -2 -33 -7 -69 -11 -36 -3 -99 -13 -140 -21 -41 -8
-85 -16 -96 -18 -46 -9 -205 -61 -306 -102 -136 -55 -256 -119 -383 -203 -55
-36 -104 -68 -110 -70 -5 -2 -12 -7 -15 -10 -3 -4 -34 -29 -69 -56 -118 -92
-296 -261 -386 -369 -22 -26 -45 -53 -51 -59 -38 -42 -171 -229 -227 -319 -63
-101 -152 -274 -206 -398 -37 -86 -119 -331 -126 -375 -1 -5 -3 -12 -4 -15 -3
-7 -9 -30 -16 -65 -3 -16 -10 -43 -15 -60 -5 -16 -11 -43 -14 -60 -2 -16 -11
-66 -20 -110 -19 -100 -32 -187 -42 -285 -19 -187 -21 -252 -18 -500 1 -151 5
-293 8 -315 3 -22 7 -70 10 -106 6 -68 10 -104 21 -174 31 -198 36 -229 40
-235 2 -3 7 -29 11 -56 3 -27 9 -53 12 -59 3 -5 7 -18 8 -30 13 -113 148 -561
224 -740 7 -16 16 -39 20 -50 10 -27 58 -140 81 -192 11 -23 19 -45 19 -48 0
-4 9 -20 21 -36 11 -16 18 -29 15 -29 -20 0 342 -640 384 -680 3 -3 23 -32 45
-65 22 -33 43 -64 48 -70 4 -5 40 -53 79 -105 195 -259 367 -452 573 -645 12
-11 39 -33 61 -49 21 -17 41 -33 44 -37 3 -4 39 -32 80 -62 41 -31 84 -63 95
-71 75 -58 226 -166 230 -166 3 0 15 -9 27 -20 11 -10 36 -26 54 -35 18 -8 36
-20 40 -26 3 -6 16 -14 27 -20 12 -5 31 -15 41 -21 153 -99 537 -278 596 -278
9 0 20 -4 25 -9 6 -6 21 -12 35 -15 14 -3 66 -16 115 -30 50 -13 104 -27 120
-30 17 -2 69 -12 117 -21 48 -8 106 -18 130 -20 24 -3 68 -8 98 -11 79 -9 465
-10 530 -2 210 27 351 82 450 175 185 172 190 468 14 851 -19 41 -34 75 -34
77 0 3 -20 39 -45 81 -25 41 -45 80 -45 85 0 5 -4 9 -8 9 -4 0 -15 12 -24 27
-35 59 -162 195 -227 243 -19 14 -40 31 -47 38 -7 6 -15 12 -18 12 -2 0 -32
18 -65 40 -58 39 -241 133 -351 181 -88 39 -375 181 -380 189 -3 4 -23 17 -45
29 -51 27 -76 43 -93 58 -7 7 -17 13 -21 13 -19 0 -319 310 -417 430 -16 19
-31 37 -35 40 -12 11 -159 209 -210 285 -76 111 -114 173 -196 320 -53 95
-165 330 -178 375 -4 14 -11 30 -16 35 -22 29 -152 450 -175 570 -2 11 -6 31
-9 45 -9 48 -25 135 -30 170 -2 19 -7 46 -9 60 -13 59 -20 210 -21 405 0 187
4 258 21 400 7 61 44 233 62 295 9 30 16 57 17 60 13 67 134 342 155 355 6 4
8 11 5 16 -4 5 -1 9 4 9 6 0 11 5 11 10 0 6 4 16 10 23 5 7 35 45 66 86 97
128 209 223 344 292 36 19 68 34 73 35 4 1 9 3 12 4 3 1 8 3 13 5 4 1 14 5 22
8 8 3 40 13 70 21 236 65 501 46 760 -54 88 -34 215 -98 261 -131 15 -10 30
-19 33 -19 6 0 127 -79 136 -90 3 -3 37 -30 75 -61 237 -190 445 -424 645
-726 49 -74 92 -143 95 -153 4 -11 11 -20 16 -20 5 0 9 -4 9 -9 0 -5 27 -57
61 -117 50 -90 169 -329 169 -340 0 -1 16 -37 35 -78 19 -42 35 -78 35 -81 0
-3 9 -24 19 -48 33 -72 127 -325 135 -362 1 -5 14 -47 29 -92 15 -46 28 -93
31 -105 2 -13 9 -41 14 -63 26 -97 55 -262 68 -375 3 -25 7 -56 9 -69 4 -21 8
-76 20 -241 12 -173 53 -280 135 -359 35 -33 138 -90 166 -91 10 0 35 -1 54
-2 56 -2 87 10 128 50 60 57 103 147 123 255 6 34 13 72 15 85 11 59 4 311
-12 412 -2 14 -6 39 -8 55 -7 42 -18 134 -22 170 -1 17 -3 30 -4 30 -1 0 -3 9
-5 20 -5 26 -18 106 -21 125 -1 8 -7 35 -12 60 -6 25 -15 68 -20 95 -6 28 -15
62 -21 76 -5 15 -7 29 -5 32 3 3 1 14 -4 24 -6 10 -12 32 -15 48 -7 38 -74
273 -86 300 -5 11 -18 49 -29 85 -23 72 -41 125 -53 155 -5 11 -20 49 -33 85
-13 36 -30 79 -37 95 -7 17 -13 32 -14 35 -1 3 -8 21 -17 40 -8 19 -27 62 -41
96 -53 124 -227 458 -302 579 -156 253 -293 443 -470 654 -160 191 -391 406
-635 589 -52 40 -100 76 -107 82 -18 15 -244 163 -278 182 -83 46 -340 169
-415 197 -137 53 -145 56 -152 57 -5 1 -10 3 -13 4 -3 1 -9 4 -15 5 -5 1 -11
3 -12 5 -2 1 -10 3 -18 5 -8 2 -51 13 -95 24 -90 24 -202 48 -255 55 -19 3
-35 5 -35 6 0 8 -428 23 -436 16z"/>
<path d="M3795 4849 c-161 -40 -283 -171 -346 -374 -15 -47 -15 -50 -25 -135
-13 -110 -8 -273 10 -360 3 -14 11 -50 17 -80 36 -173 140 -412 244 -560 19
-27 35 -52 35 -55 0 -6 2 -8 108 -124 85 -93 204 -186 296 -233 68 -34 174
-70 186 -63 5 3 11 1 14 -4 7 -11 158 -6 201 7 49 15 125 53 125 63 0 5 5 9
12 9 30 0 162 178 172 233 1 6 10 37 20 67 42 136 42 389 0 570 -3 14 -8 33
-10 44 -2 10 -20 66 -40 125 -83 241 -210 447 -380 616 -116 115 -250 200
-387 244 -50 17 -202 23 -252 10z"/>
<path d="M5182 2848 c-56 -15 -62 -71 -19 -193 20 -58 162 -406 212 -520 7
-16 19 -46 28 -65 89 -208 142 -332 157 -365 10 -22 32 -74 50 -115 18 -41 41
-95 52 -120 11 -25 28 -63 38 -85 238 -543 284 -619 376 -619 47 0 78 34 101
112 19 65 22 212 8 432 -15 254 -13 374 9 465 6 25 46 92 68 111 45 42 72 51
268 88 35 7 120 32 152 44 80 32 50 145 -57 215 -54 34 -543 277 -560 277 -2
0 -56 25 -120 55 -65 30 -119 55 -121 55 -5 0 -245 103 -333 142 -77 35 -215
85 -246 90 -16 3 -45 1 -63 -4z"/>
</g>
</svg>
